<svg width="25" height="10" viewBox="0 0 25 10" fill="none" xmlns="http://www.w3.org/2000/svg">
<path d="M8.07955 3H7.02273C6.96023 2.69602 6.85085 2.42898 6.6946 2.19886C6.54119 1.96875 6.35369 1.77557 6.1321 1.61932C5.91335 1.46023 5.67045 1.34091 5.40341 1.26136C5.13636 1.18182 4.85795 1.14205 4.56818 1.14205C4.03977 1.14205 3.56108 1.27557 3.1321 1.54261C2.70597 1.80966 2.36648 2.20312 2.11364 2.72301C1.86364 3.2429 1.73864 3.88068 1.73864 4.63636C1.73864 5.39205 1.86364 6.02983 2.11364 6.54972C2.36648 7.0696 2.70597 7.46307 3.1321 7.73011C3.56108 7.99716 4.03977 8.13068 4.56818 8.13068C4.85795 8.13068 5.13636 8.09091 5.40341 8.01136C5.67045 7.93182 5.91335 7.81392 6.1321 7.65767C6.35369 7.49858 6.54119 7.30398 6.6946 7.07386C6.85085 6.84091 6.96023 6.57386 7.02273 6.27273H8.07955C8 6.71875 7.85511 7.1179 7.64489 7.47017C7.43466 7.82244 7.1733 8.12216 6.8608 8.36932C6.5483 8.61364 6.19744 8.79972 5.80824 8.92756C5.42188 9.0554 5.00852 9.11932 4.56818 9.11932C3.82386 9.11932 3.16193 8.9375 2.58239 8.57386C2.00284 8.21023 1.54688 7.69318 1.21449 7.02273C0.882102 6.35227 0.715909 5.55682 0.715909 4.63636C0.715909 3.71591 0.882102 2.92045 1.21449 2.25C1.54688 1.57955 2.00284 1.0625 2.58239 0.698864C3.16193 0.335227 3.82386 0.153409 4.56818 0.153409C5.00852 0.153409 5.42188 0.217329 5.80824 0.34517C6.19744 0.473011 6.5483 0.660511 6.8608 0.90767C7.1733 1.15199 7.43466 1.45028 7.64489 1.80256C7.85511 2.15199 8 2.55114 8.07955 3ZM9.78729 9V0.272727H10.8441V4.15909H15.4975V0.272727H16.5543V9H15.4975V5.09659H10.8441V9H9.78729ZM18.6701 9V0.272727H21.7212C22.3292 0.272727 22.8306 0.377841 23.2255 0.588068C23.6204 0.795454 23.9144 1.07528 24.1076 1.42756C24.3008 1.77699 24.3974 2.16477 24.3974 2.59091C24.3974 2.96591 24.3306 3.27557 24.1971 3.51989C24.0664 3.7642 23.8931 3.95739 23.6772 4.09943C23.4641 4.24148 23.2326 4.34659 22.9826 4.41477V4.5C23.2496 4.51705 23.5181 4.6108 23.788 4.78125C24.0579 4.9517 24.2837 5.19602 24.4656 5.5142C24.6474 5.83239 24.7383 6.22159 24.7383 6.68182C24.7383 7.11932 24.6388 7.51278 24.44 7.86222C24.2411 8.21165 23.9272 8.48864 23.4982 8.69318C23.0692 8.89773 22.511 9 21.8235 9H18.6701ZM19.7269 8.0625H21.8235C22.5138 8.0625 23.0039 7.92898 23.2937 7.66193C23.5863 7.39205 23.7326 7.06534 23.7326 6.68182C23.7326 6.38636 23.6573 6.11364 23.5067 5.86364C23.3562 5.6108 23.1417 5.40909 22.8633 5.25852C22.5849 5.10511 22.2553 5.02841 21.8746 5.02841H19.7269V8.0625ZM19.7269 4.10795H21.6871C22.0053 4.10795 22.2923 4.04545 22.5479 3.92045C22.8065 3.79545 23.011 3.61932 23.1616 3.39205C23.315 3.16477 23.3917 2.89773 23.3917 2.59091C23.3917 2.20739 23.2582 1.8821 22.9911 1.61506C22.7241 1.34517 22.3008 1.21023 21.7212 1.21023H19.7269V4.10795Z" fill="white"/>
</svg>
